<mxfile host="app.diagrams.net" modified="2023-06-17T17:41:32.623Z" agent="Mozilla/5.0 (Windows NT 10.0; Win64; x64) AppleWebKit/537.36 (KHTML, like Gecko) Chrome/114.0.0.0 Safari/537.36" etag="TB9o9BOkpqmOPzKcvCdj" version="21.4.0" type="github">
  <diagram id="R2lEEEUBdFMjLlhIrx00" name="Page-1">
    <mxGraphModel dx="880" dy="484" grid="1" gridSize="10" guides="1" tooltips="1" connect="1" arrows="1" fold="1" page="1" pageScale="1" pageWidth="850" pageHeight="1100" math="0" shadow="0" extFonts="Permanent Marker^https://fonts.googleapis.com/css?family=Permanent+Marker">
      <root>
        <mxCell id="0" />
        <mxCell id="1" parent="0" />
        <mxCell id="LCQLXfrwRPjRq8zGbfJl-10" value="&lt;u&gt;Email&lt;/u&gt;" style="rounded=0;whiteSpace=wrap;html=1;" vertex="1" parent="1">
          <mxGeometry x="40" y="100" width="120" height="60" as="geometry" />
        </mxCell>
        <mxCell id="LCQLXfrwRPjRq8zGbfJl-11" value="HouseHoldType" style="rounded=0;whiteSpace=wrap;html=1;" vertex="1" parent="1">
          <mxGeometry x="160" y="100" width="120" height="60" as="geometry" />
        </mxCell>
        <mxCell id="LCQLXfrwRPjRq8zGbfJl-12" value="SquareFootage" style="rounded=0;whiteSpace=wrap;html=1;" vertex="1" parent="1">
          <mxGeometry x="280" y="100" width="120" height="60" as="geometry" />
        </mxCell>
        <mxCell id="LCQLXfrwRPjRq8zGbfJl-13" value="PostalCode" style="rounded=0;whiteSpace=wrap;html=1;" vertex="1" parent="1">
          <mxGeometry x="400" y="100" width="120" height="60" as="geometry" />
        </mxCell>
        <mxCell id="LCQLXfrwRPjRq8zGbfJl-15" value="&lt;b&gt;HouseHoldInfo&lt;/b&gt;" style="text;html=1;align=center;verticalAlign=middle;resizable=0;points=[];autosize=1;strokeColor=none;fillColor=none;" vertex="1" parent="1">
          <mxGeometry x="40" y="70" width="110" height="30" as="geometry" />
        </mxCell>
        <mxCell id="LCQLXfrwRPjRq8zGbfJl-16" value="ThermostatHeatSetting" style="rounded=0;whiteSpace=wrap;html=1;" vertex="1" parent="1">
          <mxGeometry x="520" y="100" width="140" height="60" as="geometry" />
        </mxCell>
        <mxCell id="LCQLXfrwRPjRq8zGbfJl-17" value="ThermostatCoolSetting" style="rounded=0;whiteSpace=wrap;html=1;" vertex="1" parent="1">
          <mxGeometry x="660" y="100" width="140" height="60" as="geometry" />
        </mxCell>
        <mxCell id="LCQLXfrwRPjRq8zGbfJl-51" style="edgeStyle=orthogonalEdgeStyle;rounded=0;orthogonalLoop=1;jettySize=auto;html=1;entryX=0;entryY=0.65;entryDx=0;entryDy=0;entryPerimeter=0;" edge="1" parent="1" source="LCQLXfrwRPjRq8zGbfJl-18" target="LCQLXfrwRPjRq8zGbfJl-10">
          <mxGeometry relative="1" as="geometry">
            <mxPoint x="10" y="130" as="targetPoint" />
            <Array as="points">
              <mxPoint x="11" y="290" />
              <mxPoint x="11" y="139" />
            </Array>
          </mxGeometry>
        </mxCell>
        <mxCell id="LCQLXfrwRPjRq8zGbfJl-18" value="&lt;u&gt;Email&lt;/u&gt;" style="rounded=0;whiteSpace=wrap;html=1;" vertex="1" parent="1">
          <mxGeometry x="40" y="260" width="120" height="60" as="geometry" />
        </mxCell>
        <mxCell id="LCQLXfrwRPjRq8zGbfJl-19" value="&lt;u&gt;UtilityName&lt;/u&gt;" style="rounded=0;whiteSpace=wrap;html=1;" vertex="1" parent="1">
          <mxGeometry x="160" y="260" width="120" height="60" as="geometry" />
        </mxCell>
        <mxCell id="LCQLXfrwRPjRq8zGbfJl-20" value="&lt;b&gt;HouseHoldInfo-UtilityName&lt;/b&gt;" style="text;html=1;align=center;verticalAlign=middle;resizable=0;points=[];autosize=1;strokeColor=none;fillColor=none;" vertex="1" parent="1">
          <mxGeometry x="40" y="210" width="180" height="30" as="geometry" />
        </mxCell>
        <mxCell id="LCQLXfrwRPjRq8zGbfJl-22" value="BTU" style="rounded=0;whiteSpace=wrap;html=1;" vertex="1" parent="1">
          <mxGeometry x="160" y="420" width="120" height="60" as="geometry" />
        </mxCell>
        <mxCell id="LCQLXfrwRPjRq8zGbfJl-23" value="ModelName" style="rounded=0;whiteSpace=wrap;html=1;" vertex="1" parent="1">
          <mxGeometry x="280" y="420" width="120" height="60" as="geometry" />
        </mxCell>
        <mxCell id="LCQLXfrwRPjRq8zGbfJl-24" value="&lt;b&gt;Appliance&lt;/b&gt;" style="text;html=1;align=center;verticalAlign=middle;resizable=0;points=[];autosize=1;strokeColor=none;fillColor=none;" vertex="1" parent="1">
          <mxGeometry x="40" y="390" width="80" height="30" as="geometry" />
        </mxCell>
        <mxCell id="LCQLXfrwRPjRq8zGbfJl-25" value="Name" style="rounded=0;whiteSpace=wrap;html=1;" vertex="1" parent="1">
          <mxGeometry x="190" y="580" width="120" height="60" as="geometry" />
        </mxCell>
        <mxCell id="LCQLXfrwRPjRq8zGbfJl-27" value="&lt;b&gt;Manufacturer&lt;/b&gt;" style="text;html=1;align=center;verticalAlign=middle;resizable=0;points=[];autosize=1;strokeColor=none;fillColor=none;" vertex="1" parent="1">
          <mxGeometry x="40" y="548" width="100" height="30" as="geometry" />
        </mxCell>
        <mxCell id="LCQLXfrwRPjRq8zGbfJl-28" value="TankSize" style="rounded=0;whiteSpace=wrap;html=1;" vertex="1" parent="1">
          <mxGeometry x="280" y="740" width="120" height="60" as="geometry" />
        </mxCell>
        <mxCell id="LCQLXfrwRPjRq8zGbfJl-29" value="RPM" style="rounded=0;whiteSpace=wrap;html=1;" vertex="1" parent="1">
          <mxGeometry x="280" y="900" width="120" height="60" as="geometry" />
        </mxCell>
        <mxCell id="LCQLXfrwRPjRq8zGbfJl-30" value="TempSetting" style="rounded=0;whiteSpace=wrap;html=1;" vertex="1" parent="1">
          <mxGeometry x="400" y="740" width="120" height="60" as="geometry" />
        </mxCell>
        <mxCell id="LCQLXfrwRPjRq8zGbfJl-31" value="EnergySourceID1" style="rounded=0;whiteSpace=wrap;html=1;" vertex="1" parent="1">
          <mxGeometry x="520" y="740" width="120" height="60" as="geometry" />
        </mxCell>
        <mxCell id="LCQLXfrwRPjRq8zGbfJl-32" value="WaterHeater" style="text;html=1;align=center;verticalAlign=middle;resizable=0;points=[];autosize=1;strokeColor=none;fillColor=none;" vertex="1" parent="1">
          <mxGeometry x="35" y="698" width="90" height="30" as="geometry" />
        </mxCell>
        <mxCell id="LCQLXfrwRPjRq8zGbfJl-33" value="AirHandler" style="text;html=1;align=center;verticalAlign=middle;resizable=0;points=[];autosize=1;strokeColor=none;fillColor=none;" vertex="1" parent="1">
          <mxGeometry x="40" y="868" width="80" height="30" as="geometry" />
        </mxCell>
        <mxCell id="LCQLXfrwRPjRq8zGbfJl-34" value="SEER" style="rounded=0;whiteSpace=wrap;html=1;" vertex="1" parent="1">
          <mxGeometry x="280" y="1020" width="120" height="60" as="geometry" />
        </mxCell>
        <mxCell id="LCQLXfrwRPjRq8zGbfJl-35" value="HSFP" style="rounded=0;whiteSpace=wrap;html=1;" vertex="1" parent="1">
          <mxGeometry x="400" y="1020" width="120" height="60" as="geometry" />
        </mxCell>
        <mxCell id="LCQLXfrwRPjRq8zGbfJl-38" value="EER" style="rounded=0;whiteSpace=wrap;html=1;" vertex="1" parent="1">
          <mxGeometry x="280" y="1140" width="120" height="60" as="geometry" />
        </mxCell>
        <mxCell id="LCQLXfrwRPjRq8zGbfJl-40" value="EnerySourceID2" style="rounded=0;whiteSpace=wrap;html=1;" vertex="1" parent="1">
          <mxGeometry x="280" y="1260" width="120" height="60" as="geometry" />
        </mxCell>
        <mxCell id="LCQLXfrwRPjRq8zGbfJl-42" value="HeatPump" style="text;html=1;align=center;verticalAlign=middle;resizable=0;points=[];autosize=1;strokeColor=none;fillColor=none;" vertex="1" parent="1">
          <mxGeometry x="50" y="988" width="80" height="30" as="geometry" />
        </mxCell>
        <mxCell id="LCQLXfrwRPjRq8zGbfJl-43" value="AirConditioner" style="text;html=1;align=center;verticalAlign=middle;resizable=0;points=[];autosize=1;strokeColor=none;fillColor=none;" vertex="1" parent="1">
          <mxGeometry x="10" y="1118" width="100" height="30" as="geometry" />
        </mxCell>
        <mxCell id="LCQLXfrwRPjRq8zGbfJl-44" value="Heater" style="text;html=1;align=center;verticalAlign=middle;resizable=0;points=[];autosize=1;strokeColor=none;fillColor=none;" vertex="1" parent="1">
          <mxGeometry x="50" y="1238" width="60" height="30" as="geometry" />
        </mxCell>
        <mxCell id="LCQLXfrwRPjRq8zGbfJl-45" value="&lt;u&gt;GeneratorID&lt;/u&gt;" style="rounded=0;whiteSpace=wrap;html=1;" vertex="1" parent="1">
          <mxGeometry x="160" y="1380" width="120" height="60" as="geometry" />
        </mxCell>
        <mxCell id="LCQLXfrwRPjRq8zGbfJl-46" value="GeneratorType" style="rounded=0;whiteSpace=wrap;html=1;" vertex="1" parent="1">
          <mxGeometry x="280" y="1520" width="120" height="60" as="geometry" />
        </mxCell>
        <mxCell id="LCQLXfrwRPjRq8zGbfJl-47" value="AvgKWGeneratedPerMonth&lt;span style=&quot;white-space: pre;&quot;&gt;&#x9;&lt;/span&gt;" style="rounded=0;whiteSpace=wrap;html=1;" vertex="1" parent="1">
          <mxGeometry x="400" y="1520" width="170" height="60" as="geometry" />
        </mxCell>
        <mxCell id="LCQLXfrwRPjRq8zGbfJl-48" value="BatteryStorageCapacity" style="rounded=0;whiteSpace=wrap;html=1;" vertex="1" parent="1">
          <mxGeometry x="570" y="1520" width="150" height="60" as="geometry" />
        </mxCell>
        <mxCell id="LCQLXfrwRPjRq8zGbfJl-49" value="Add Generator" style="text;html=1;align=center;verticalAlign=middle;resizable=0;points=[];autosize=1;strokeColor=none;fillColor=none;" vertex="1" parent="1">
          <mxGeometry x="20" y="1358" width="100" height="30" as="geometry" />
        </mxCell>
        <mxCell id="LCQLXfrwRPjRq8zGbfJl-50" value="Generator" style="text;html=1;align=center;verticalAlign=middle;resizable=0;points=[];autosize=1;strokeColor=none;fillColor=none;" vertex="1" parent="1">
          <mxGeometry x="20" y="1478" width="80" height="30" as="geometry" />
        </mxCell>
        <mxCell id="LCQLXfrwRPjRq8zGbfJl-52" value="&lt;u&gt;ID&lt;/u&gt;" style="rounded=0;whiteSpace=wrap;html=1;" vertex="1" parent="1">
          <mxGeometry x="160" y="420" width="120" height="60" as="geometry" />
        </mxCell>
        <mxCell id="LCQLXfrwRPjRq8zGbfJl-53" value="BTU" style="rounded=0;whiteSpace=wrap;html=1;" vertex="1" parent="1">
          <mxGeometry x="280" y="420" width="120" height="60" as="geometry" />
        </mxCell>
        <mxCell id="LCQLXfrwRPjRq8zGbfJl-54" value="ModelName" style="rounded=0;whiteSpace=wrap;html=1;" vertex="1" parent="1">
          <mxGeometry x="400" y="420" width="120" height="60" as="geometry" />
        </mxCell>
        <mxCell id="LCQLXfrwRPjRq8zGbfJl-55" value="&lt;u&gt;Email&lt;/u&gt;" style="rounded=0;whiteSpace=wrap;html=1;" vertex="1" parent="1">
          <mxGeometry x="40" y="420" width="120" height="60" as="geometry" />
        </mxCell>
        <mxCell id="LCQLXfrwRPjRq8zGbfJl-56" value="&lt;u&gt;Email&lt;/u&gt;" style="rounded=0;whiteSpace=wrap;html=1;" vertex="1" parent="1">
          <mxGeometry x="40" y="740" width="120" height="60" as="geometry" />
        </mxCell>
        <mxCell id="LCQLXfrwRPjRq8zGbfJl-57" value="&lt;u&gt;ID&lt;/u&gt;" style="rounded=0;whiteSpace=wrap;html=1;" vertex="1" parent="1">
          <mxGeometry x="160" y="740" width="120" height="60" as="geometry" />
        </mxCell>
        <mxCell id="LCQLXfrwRPjRq8zGbfJl-58" value="&lt;u&gt;Email&lt;/u&gt;" style="rounded=0;whiteSpace=wrap;html=1;" vertex="1" parent="1">
          <mxGeometry x="40" y="900" width="120" height="60" as="geometry" />
        </mxCell>
        <mxCell id="LCQLXfrwRPjRq8zGbfJl-59" value="&lt;u&gt;ID&lt;/u&gt;" style="rounded=0;whiteSpace=wrap;html=1;" vertex="1" parent="1">
          <mxGeometry x="160" y="900" width="120" height="60" as="geometry" />
        </mxCell>
        <mxCell id="LCQLXfrwRPjRq8zGbfJl-60" value="&lt;u&gt;Email&lt;/u&gt;" style="rounded=0;whiteSpace=wrap;html=1;" vertex="1" parent="1">
          <mxGeometry x="40" y="1020" width="120" height="60" as="geometry" />
        </mxCell>
        <mxCell id="LCQLXfrwRPjRq8zGbfJl-61" value="&lt;u&gt;ID&lt;/u&gt;" style="rounded=0;whiteSpace=wrap;html=1;" vertex="1" parent="1">
          <mxGeometry x="160" y="1020" width="120" height="60" as="geometry" />
        </mxCell>
        <mxCell id="LCQLXfrwRPjRq8zGbfJl-62" value="&lt;u&gt;Email&lt;/u&gt;" style="rounded=0;whiteSpace=wrap;html=1;" vertex="1" parent="1">
          <mxGeometry x="40" y="1260" width="120" height="60" as="geometry" />
        </mxCell>
        <mxCell id="LCQLXfrwRPjRq8zGbfJl-63" value="&lt;u&gt;ID&lt;/u&gt;" style="rounded=0;whiteSpace=wrap;html=1;" vertex="1" parent="1">
          <mxGeometry x="160" y="1260" width="120" height="60" as="geometry" />
        </mxCell>
        <mxCell id="LCQLXfrwRPjRq8zGbfJl-64" value="&lt;u&gt;Email&lt;/u&gt;" style="rounded=0;whiteSpace=wrap;html=1;" vertex="1" parent="1">
          <mxGeometry x="40" y="1140" width="120" height="60" as="geometry" />
        </mxCell>
        <mxCell id="LCQLXfrwRPjRq8zGbfJl-65" value="&lt;u&gt;ID&lt;/u&gt;" style="rounded=0;whiteSpace=wrap;html=1;" vertex="1" parent="1">
          <mxGeometry x="160" y="1140" width="120" height="60" as="geometry" />
        </mxCell>
        <mxCell id="LCQLXfrwRPjRq8zGbfJl-66" value="&lt;u&gt;Email&lt;/u&gt;" style="rounded=0;whiteSpace=wrap;html=1;" vertex="1" parent="1">
          <mxGeometry x="40" y="1380" width="120" height="60" as="geometry" />
        </mxCell>
        <mxCell id="LCQLXfrwRPjRq8zGbfJl-67" value="&lt;u&gt;GeneratorID&lt;/u&gt;" style="rounded=0;whiteSpace=wrap;html=1;" vertex="1" parent="1">
          <mxGeometry x="160" y="1520" width="120" height="60" as="geometry" />
        </mxCell>
        <mxCell id="LCQLXfrwRPjRq8zGbfJl-68" value="&lt;u&gt;Email&lt;/u&gt;" style="rounded=0;whiteSpace=wrap;html=1;" vertex="1" parent="1">
          <mxGeometry x="40" y="1520" width="120" height="60" as="geometry" />
        </mxCell>
        <mxCell id="LCQLXfrwRPjRq8zGbfJl-69" value="" style="rounded=0;whiteSpace=wrap;html=1;" vertex="1" parent="1">
          <mxGeometry x="70" y="580" width="120" height="60" as="geometry" />
        </mxCell>
      </root>
    </mxGraphModel>
  </diagram>
</mxfile>
